<svg width="79" height="159" viewBox="0 0 79 159" fill="none" xmlns="http://www.w3.org/2000/svg">
<path d="M5.86874 29.9088C2.48883 33.1349 0.335389 39.0377 0.178515 45.5497C-0.35628 67.5716 -0.862553 114.112 17.5558 137.735L33.343 155.336C36.9439 159.351 41.6002 159.554 45.3367 155.886C50.2211 151.094 56.7599 143.877 60.5391 136.385C60.7103 136.038 60.8885 135.716 61.0739 135.393C63.4698 131.319 81.5102 98.7223 78.7079 44.9762C78.387 38.8227 76.2978 33.3021 73.1032 30.2074L45.1513 3.16719C41.6715 -0.202385 37.386 -0.226285 33.8992 3.11939L5.86874 29.9088Z" fill="#F7BC28"/>
<path d="M14.5535 42.2267C12.0507 44.6164 10.4534 49.0016 10.3322 53.829C9.93286 70.163 9.56207 104.671 23.2172 122.2L34.9257 135.26C37.5996 138.236 41.0508 138.391 43.8175 135.667C47.4399 132.118 52.2887 126.765 55.091 121.209C55.2194 120.958 55.3477 120.707 55.4903 120.48C57.2658 117.457 70.593 93.0452 68.5679 53.4228C68.4395 50.8537 64.6318 43.1707 63.334 41.426L43.6892 22.3915C41.1079 19.8942 37.9348 19.8822 35.3464 22.3557L14.5535 42.2267Z" fill="#E48929"/>
<path d="M39.4966 20.5037V79.5669H67.7409C67.7409 79.5669 69.7518 63.0894 68.5752 53.4227C68.5752 53.4227 68.2472 46.7792 63.3413 41.4261L43.6894 22.3917C43.6894 22.3917 41.6928 20.3842 39.4966 20.5037Z" fill="#FBFAF7"/>
<path d="M39.4965 79.5668L39.4894 137.591C39.4894 137.591 37.2219 137.806 34.3767 134.627L24.9643 124.136C24.9643 124.136 16.9852 116.166 14.3897 102.975C14.3897 102.975 11.1167 90.8467 10.6675 78.4795L39.4965 79.5668Z" fill="#FBFAF7"/>
</svg>
